<?xml version="1.0" encoding="UTF-8"?>
<svg width="22px" height="22px" viewBox="0 0 22 22" version="1.1" xmlns="http://www.w3.org/2000/svg" xmlns:xlink="http://www.w3.org/1999/xlink">
    <!-- Generator: Sketch 42 (36781) - http://www.bohemiancoding.com/sketch -->
    <title>Untitled 2</title>
    <desc>Created with Sketch.</desc>
    <defs></defs>
    <g id="Page-1" stroke="none" stroke-width="1" fill="none" fill-rule="evenodd">
        <path d="M3.4,2 L8,2 C8.6,2 9,1.6 9,1 C9,0.4 8.6,0 8,0 L1,0 C0.4,0 0,0.4 0,1 L0,8 C0,8.6 0.4,9 1,9 C1.6,9 2,8.6 2,8 L2,3.4 L8.3,9.7 C8.7,10.1 9.3,10.1 9.7,9.7 C10.1,9.3 10.1,8.7 9.7,8.3 L3.4,2 L3.4,2 Z M21,13 C20.4,13 20,13.4 20,14 L20,18.6 L13.7,12.3 C13.3,11.9 12.7,11.9 12.3,12.3 C11.9,12.7 11.9,13.3 12.3,13.7 L18.6,20 L14,20 C13.4,20 13,20.4 13,21 C13,21.6 13.4,22 14,22 L21,22 C21.6,22 22,21.5 22,21 L22,14 C22,13.4 21.6,13 21,13 L21,13 Z" id="Shape" fill="#95979A"></path>
    </g>
</svg>