<?xml version="1.0" encoding="UTF-8"?>
<svg width="22px" height="22px" viewBox="0 0 22 22" version="1.1" xmlns="http://www.w3.org/2000/svg" xmlns:xlink="http://www.w3.org/1999/xlink">
    <!-- Generator: Sketch 42 (36781) - http://www.bohemiancoding.com/sketch -->
    <title>Untitled</title>
    <desc>Created with Sketch.</desc>
    <defs></defs>
    <g id="Page-1" stroke="none" stroke-width="1" fill="none" fill-rule="evenodd">
        <path d="M9,1 C8.4,1 8,1.4 8,2 L8,6.6 L1.7,0.3 C1.3,-0.1 0.7,-0.1 0.3,0.3 C-0.1,0.7 -0.1,1.3 0.3,1.7 L6.6,8 L2,8 C1.4,8 1,8.4 1,9 C1,9.6 1.4,10 2,10 L9,10 C9.6,10 10,9.5 10,9 L10,2 C10,1.5 9.5,1 9,1 L9,1 Z M21.7,20.3 L15.4,14 L20,14 C20.6,14 21,13.6 21,13 C21,12.4 20.6,12 20,12 L13,12 C12.4,12 12,12.5 12,13 L12,20 C12,20.6 12.4,21 13,21 C13.6,21 14,20.6 14,20 L14,15.4 L20.3,21.7 C20.7,22.1 21.3,22.1 21.7,21.7 C22.1,21.3 22.1,20.7 21.7,20.3 L21.7,20.3 Z" id="Shape" fill="#444444"></path>
    </g>
</svg>